#!OML:ASF Y:\EmotionMaleHayes\Project 1\Capture day 1\Session 1\Male1.ASF
:FULLY-SPECIFIED
:DEGREES
426
root -28.1354 16.7105 -10.4853 7.04629 113.9 5.56815
lowerback 14.2629 1.52653 -4.10173
upperback 7.58654 2.07744 -1.87628
thorax -0.0359877 1.20801 0.0600289
lowerneck -19.6188 -0.638499 3.48479
upperneck 29.884 -1.29809 -0.238676
head 13.3095 0.059533 -0.851365
rclavicle 4.81059e-014 -1.66979e-014
rhumerus -36.0598 14.0107 -84.098
rradius 71.2488
rwrist -5.72842
rhand -18.751 -36.8033
rfingers 7.12502
rthumb 7.54551 -66.6487
lclavicle 4.81059e-014 -1.66979e-014
lhumerus -45.791 22.0123 48.4452
lradius 16.7926
lwrist -21.1963
lhand -22.8867 -19.196
lfingers 7.12502
lthumb 3.55249 10.7542
rfemur -3.98616 -3.88466 12.1049
rtibia 16.7951
rfoot -18.2369 -10.7972
rtoes 17.5981
lfemur -9.92372 10.4361 -1.53278
ltibia 28.1556
lfoot -14.1953 14.1394
ltoes -14.763
427
root -28.1137 16.7044 -10.6166 6.95752 113.827 5.63229
lowerback 14.3463 1.49967 -4.3499
upperback 7.62922 2.01528 -1.87336
thorax -0.0381575 1.17232 0.208971
lowerneck -19.5308 -0.648185 3.2167
upperneck 29.8781 -1.26428 -0.0806043
head 13.2925 0.0653366 -0.737254
rclavicle 3.81667e-014 7.95139e-016
rhumerus -36.3858 14.1604 -84.3389
rradius 71.6934
rwrist -5.8024
rhand -19.3935 -36.7519
rfingers 7.12502
rthumb 6.92532 -66.6186
lclavicle 3.81667e-014 7.95139e-016
lhumerus -46.0293 23.6964 47.0303
lradius 16.0842
lwrist -23.8018
lhand -22.6818 -18.5286
lfingers 7.12502
lthumb 3.75035 11.4181
rfemur -3.59892 -3.79533 11.677
rtibia 16.9039
rfoot -18.3308 -10.8326
rtoes 17.3976
lfemur -9.27806 10.5078 -1.95362
ltibia 27.7537
lfoot -15.0816 14.2753
ltoes -12.4233
428
root -28.0943 16.6985 -10.745 6.90731 113.811 5.51439
lowerback 14.2881 1.45258 -4.63798
upperback 7.6085 1.91875 -1.89528
thorax -0.0305727 1.11566 0.362567
lowerneck -19.5066 -0.658518 3.04636
upperneck 29.9348 -1.2049 -0.11331
head 13.3126 0.0684532 -0.710913
rclavicle -7.39479e-014 3.73715e-014
rhumerus -36.7284 14.1638 -84.582
rradius 72.0677
rwrist -5.57244
rhand -20.1545 -36.0993
rfingers 7.12502
rthumb 6.19061 -65.9888
lclavicle -7.39479e-014 3.73715e-014
lhumerus -46.3498 25.6455 45.4701
lradius 15.4434
lwrist -26.8914
lhand -22.4524 -18.1434
lfingers 7.12502
lthumb 3.97192 11.7993
rfemur -3.41578 -3.55047 11.2099
rtibia 16.8922
rfoot -18.3363 -11.0671
rtoes 18.4819
lfemur -9.05074 10.5498 -2.5349
ltibia 27.7266
lfoot -15.0344 14.6368
ltoes -14.8483
429
root -28.0751 16.6886 -10.8637 7.44395 113.52 5.77184
lowerback 14.0539 1.57353 -4.94268
upperback 7.51751 2.03841 -1.87193
thorax -0.0148482 1.1608 0.545885
lowerneck -19.7352 -0.713396 2.96352
upperneck 30.1155 -1.22533 -0.23027
head 13.4358 0.0376258 -0.747988
rclavicle 9.54166e-015 -1.51076e-014
rhumerus -36.8748 13.9429 -84.7082
rradius 72.169
rwrist -5.10648
rhand -20.5798 -35.7324
rfingers 7.12502
rthumb 5.78008 -65.6336
lclavicle 9.54166e-015 -1.51076e-014
lhumerus -46.5911 27.8145 43.821
lradius 14.8424
lwrist -30.5313
lhand -21.8645 -18.3371
lfingers 7.12502
lthumb 4.53958 11.5943
rfemur -3.71068 -3.1857 10.9948
rtibia 17.1142
rfoot -18.1607 -11.2412
rtoes 18.9413
lfemur -9.12003 10.8013 -2.89511
ltibia 27.9992
lfoot -15.7084 14.8301
ltoes -13.775
430
root -28.0558 16.6891 -10.9905 7.44325 113.748 5.68492
lowerback 14.0287 1.44033 -4.9801
upperback 7.51712 1.86227 -1.98542
thorax 0.00933935 1.07505 0.474062
lowerneck -19.8648 -0.745526 2.76471
upperneck 30.228 -1.25482 -0.0816638
head 13.5137 0.0251948 -0.661326
rclavicle -5.20816e-014 -1.03368e-014
rhumerus -36.9654 13.7746 -85.0205
rradius 72.0672
rwrist -4.61983
rhand -20.5512 -35.3554
rfingers 7.12502
rthumb 5.80763 -65.2558
lclavicle -5.20816e-014 -1.03368e-014
lhumerus -46.5386 29.1715 42.8451
lradius 14.4612
lwrist -33.0282
lhand -21.5404 -18.3222
lfingers 7.12502
lthumb 4.85253 11.6023
rfemur -3.55459 -3.31332 10.5837
rtibia 17.3081
rfoot -18.2023 -11.3423
rtoes 19.6413
lfemur -9.15327 10.3789 -3.42407
ltibia 28.287
lfoot -16.3039 14.8964
ltoes -14.0041
431
root -28.0405 16.6885 -11.1126 7.65037 113.799 5.72392
lowerback 13.949 1.36516 -5.11656
upperback 7.43072 1.73958 -2.05275
thorax -0.0345984 1.00977 0.498076
lowerneck -19.7619 -0.753704 2.58429
upperneck 30.2285 -1.22495 0.00756771
head 13.4945 0.0301296 -0.589393
rclavicle 1.98785e-015 -3.18055e-015
rhumerus -37.1353 14.0138 -85.3585
rradius 71.8313
rwrist -4.59684
rhand -20.7678 -34.2671
rfingers 7.12502
rthumb 5.59854 -64.1731
lclavicle 1.98785e-015 -3.18055e-015
lhumerus -46.1602 29.4251 43.0815
lradius 14.3682
lwrist -33.8856
lhand -21.8495 -17.5991
lfingers 7.12502
lthumb 4.55406 12.332
rfemur -3.64933 -3.14804 10.3016
rtibia 17.62
rfoot -18.4545 -11.5683
rtoes 20.9232
lfemur -9.24718 9.99818 -3.85999
ltibia 28.5418
lfoot -16.5632 14.9728
ltoes -16.3099
432
root -28.0243 16.6867 -11.2241 7.93447 113.761 5.90232
lowerback 13.9385 1.37012 -5.24554
upperback 7.38379 1.7265 -2.1485
thorax -0.0769768 1.00232 0.471542
lowerneck -19.816 -0.743005 2.54988
upperneck 30.2518 -1.22405 0.0789926
head 13.5172 0.0365835 -0.555538
rclavicle -3.89618e-014 5.725e-014
rhumerus -37.1982 14.3038 -85.7283
rradius 71.5015
rwrist -4.7741
rhand -20.959 -34.3262
rfingers 7.12502
rthumb 5.41397 -64.2371
lclavicle -3.89618e-014 5.725e-014
lhumerus -45.0388 28.5015 44.5244
lradius 14.5617
lwrist -33.091
lhand -21.8626 -16.7419
lfingers 7.12502
lthumb 4.54149 13.1895
rfemur -3.78323 -2.5295 10.2072
rtibia 17.9466
rfoot -18.5477 -12.0577
rtoes 21.9485
lfemur -9.33307 9.59557 -4.14828
ltibia 28.9
lfoot -17.0762 14.9307
ltoes -16.9131
433
root -28.0063 16.6853 -11.3337 8.39281 113.872 6.33602
lowerback 14.0165 1.37087 -5.26477
upperback 7.3364 1.71477 -2.16215
thorax -0.168029 0.99765 0.466631
lowerneck -19.7785 -0.744339 2.48068
upperneck 30.2105 -1.21385 0.11785
head 13.4927 0.0370617 -0.526442
rclavicle 1.43125e-014 -6.36111e-015
rhumerus -37.4592 14.0389 -86.0012
rradius 71.2645
rwrist -4.43994
rhand -20.8454 -35.0013
rfingers 7.12502
rthumb 5.52358 -64.9093
lclavicle 1.43125e-014 -6.36111e-015
lhumerus -43.8036 27.2968 46.2158
lradius 14.8084
lwrist -31.8841
lhand -21.7676 -16.5543
lfingers 7.12502
lthumb 4.63321 13.375
rfemur -3.90642 -1.88568 10.2824
rtibia 18.3996
rfoot -18.4624 -12.5069
rtoes 22.8625
lfemur -9.44137 9.27277 -4.25241
ltibia 29.4079
lfoot -17.7039 14.6917
ltoes -16.3779
434
root -27.985 16.6821 -11.4338 9.05831 113.658 6.81559
lowerback 13.8908 1.47088 -5.52025
upperback 7.25731 1.81113 -2.14437
thorax -0.19422 1.03571 0.616467
lowerneck -19.8655 -0.810604 2.38013
upperneck 30.3359 -1.238 0.0108497
head 13.5633 0.00289066 -0.556123
rclavicle 4.37326e-015 -9.54166e-015
rhumerus -37.8501 13.442 -86.2216
rradius 71.1477
rwrist -3.90269
rhand -20.8089 -34.9897
rfingers 7.12502
rthumb 5.55888 -64.8968
lclavicle 4.37326e-015 -9.54166e-015
lhumerus -42.7827 26.8434 47.3906
lradius 14.9749
lwrist -31.2711
lhand -21.9041 -16.5831
lfingers 7.12502
lthumb 4.50136 13.349
rfemur -4.41362 -1.03665 10.438
rtibia 19.0728
rfoot -18.451 -12.9823
rtoes 24.5261
lfemur -9.54398 9.59483 -4.27944
ltibia 29.7989
lfoot -18.186 14.3985
ltoes -15.8019
